<svg width="34" height="32" viewBox="0 0 34 32" fill="none" xmlns="http://www.w3.org/2000/svg">
<path d="M8.69368 7.0202H29.7499C30.8004 7.0207 31.7694 7.58598 32.2868 8.50012C32.8042 9.41425 32.7901 10.536 32.2499 11.4369L25.5687 20.1869C25.0419 21.0653 24.093 21.603 23.0687 21.6035H10.152C8.54118 21.6035 7.23534 20.2977 7.23534 18.6869L8.69368 7.0202ZM8.69368 7.0202L7.29999 1.43273C7.26272 1.28737 7.13131 1.18602 6.98124 1.1869H1.41666M10.1499 28.166C10.1476 29.3713 9.16905 30.3467 7.96377 30.3452C6.75849 30.3437 5.78245 29.3658 5.78322 28.1605C5.78398 26.9552 6.76127 25.9785 7.96654 25.9785C8.54615 25.9791 9.1018 26.2099 9.51126 26.6201C9.92071 27.0303 10.1504 27.5864 10.1499 28.166ZM21.7939 28.166C21.7916 29.3713 20.813 30.3467 19.6078 30.3452C18.4025 30.3437 17.4264 29.3658 17.4272 28.1605C17.428 26.9552 18.4053 25.9785 19.6105 25.9785C20.1901 25.9791 20.7458 26.2099 21.1552 26.6201C21.5647 27.0303 21.7944 27.5864 21.7939 28.166Z" stroke="#FEB922" stroke-width="1.5" stroke-linecap="round" stroke-linejoin="round"/>
</svg>
