<svg width="46" height="46" viewBox="0 0 46 46" fill="none" xmlns="http://www.w3.org/2000/svg">
<path d="M23.4832 13.0159C23.8973 13.0059 24.2249 12.6621 24.2149 12.248C24.2049 11.8339 23.8612 11.5063 23.4471 11.5163L23.4832 13.0159ZM13.1039 23.128H13.8539C13.8539 23.1222 13.8538 23.1164 13.8537 23.1107L13.1039 23.128ZM13.1039 27.4724L13.142 28.2214C13.5409 28.2011 13.8539 27.8718 13.8539 27.4724H13.1039ZM13.1039 33.2661L13.0658 34.0151C13.0785 34.0158 13.0912 34.0161 13.1039 34.0161V33.2661ZM19.0908 34.0161C19.505 34.0161 19.8408 33.6803 19.8408 33.2661C19.8408 32.8519 19.505 32.5161 19.0908 32.5161V34.0161ZM22.7151 12.2661C22.7151 12.6803 23.0509 13.0161 23.4651 13.0161C23.8793 13.0161 24.2151 12.6803 24.2151 12.2661H22.7151ZM24.2151 7.76611C24.2151 7.3519 23.8793 7.01611 23.4651 7.01611C23.0509 7.01611 22.7151 7.3519 22.7151 7.76611H24.2151ZM23.4832 11.5163C23.0691 11.5063 22.7253 11.8339 22.7154 12.248C22.7054 12.6621 23.033 13.0059 23.4471 13.0159L23.4832 11.5163ZM33.8264 23.128L33.0766 23.1107C33.0765 23.1164 33.0764 23.1222 33.0764 23.128H33.8264ZM33.8264 27.4724H33.0764C33.0764 27.8718 33.3894 28.2011 33.7883 28.2214L33.8264 27.4724ZM33.8264 33.2661V34.0161C33.8391 34.0161 33.8518 34.0158 33.8645 34.0151L33.8264 33.2661ZM27.8395 32.5161C27.4253 32.5161 27.0895 32.8519 27.0895 33.2661C27.0895 33.6803 27.4253 34.0161 27.8395 34.0161V32.5161ZM19.8389 33.2689C19.8404 32.8547 19.5058 32.5176 19.0916 32.5161C18.6774 32.5146 18.3404 32.8492 18.3389 33.2634L19.8389 33.2689ZM20.3695 36.4536L20.9104 35.934L20.9091 35.9328L20.3695 36.4536ZM26.557 36.4536L26.0174 35.9327L26.0161 35.934L26.557 36.4536ZM28.5876 33.2634C28.5861 32.8492 28.2491 32.5146 27.8349 32.5161C27.4207 32.5176 27.0861 32.8547 27.0876 33.2689L28.5876 33.2634ZM19.087 32.5161C18.6728 32.5161 18.337 32.8519 18.337 33.2661C18.337 33.6803 18.6728 34.0161 19.087 34.0161V32.5161ZM27.8395 34.0161C28.2537 34.0161 28.5895 33.6803 28.5895 33.2661C28.5895 32.8519 28.2537 32.5161 27.8395 32.5161V34.0161ZM23.4471 11.5163C17.174 11.6675 12.2093 16.8721 12.3541 23.1453L13.8537 23.1107C13.728 17.6651 18.0377 13.1472 23.4832 13.0159L23.4471 11.5163ZM12.3539 23.128V27.4724H13.8539V23.128H12.3539ZM13.0658 26.7233C11.1242 26.8221 9.60071 28.4252 9.60071 30.3692H11.1007C11.1007 29.224 11.9982 28.2796 13.142 28.2214L13.0658 26.7233ZM9.60071 30.3692C9.60071 32.3133 11.1242 33.9163 13.0658 34.0151L13.142 32.5171C11.9982 32.4589 11.1007 31.5145 11.1007 30.3692H9.60071ZM13.1039 34.0161H19.0908V32.5161H13.1039V34.0161ZM24.2151 12.2661V7.76611H22.7151V12.2661H24.2151ZM23.4471 13.0159C28.8925 13.1472 33.2022 17.6651 33.0766 23.1107L34.5762 23.1453C34.7209 16.8721 29.7563 11.6675 23.4832 11.5163L23.4471 13.0159ZM33.0764 23.128V27.4724H34.5764V23.128H33.0764ZM33.7883 28.2214C34.932 28.2796 35.8296 29.224 35.8296 30.3692H37.3296C37.3296 28.4252 35.8061 26.8221 33.8645 26.7233L33.7883 28.2214ZM35.8296 30.3692C35.8296 31.5145 34.932 32.4589 33.7883 32.5171L33.8645 34.0151C35.8061 33.9163 37.3296 32.3133 37.3296 30.3692H35.8296ZM33.8264 32.5161H27.8395V34.0161H33.8264V32.5161ZM18.3389 33.2634C18.3338 34.6473 18.8687 35.9787 19.8299 36.9745L20.9091 35.9328C20.2192 35.218 19.8352 34.2623 19.8389 33.2689L18.3389 33.2634ZM19.8286 36.9732C20.779 37.9625 22.0915 38.5216 23.4633 38.5216V37.0216C22.4997 37.0216 21.5779 36.6289 20.9104 35.934L19.8286 36.9732ZM23.4633 38.5216C24.835 38.5216 26.1475 37.9625 27.0979 36.9732L26.0161 35.934C25.3486 36.6289 24.4268 37.0216 23.4633 37.0216V38.5216ZM27.0966 36.9745C28.0578 35.9787 28.5927 34.6473 28.5876 33.2634L27.0876 33.2689C27.0913 34.2623 26.7073 35.218 26.0174 35.9328L27.0966 36.9745ZM19.087 34.0161H27.8395V32.5161H19.087V34.0161Z" fill="#FEB922"/>
</svg>
