<svg width="19" height="20" viewBox="0 0 19 20" fill="none" xmlns="http://www.w3.org/2000/svg">
<path d="M8.45032 12.8958C8.42898 12.4052 8.45565 11.9838 8.53032 11.6318C8.60498 11.2798 8.73832 10.9652 8.93032 10.6878C9.13298 10.4105 9.39965 10.1492 9.73032 9.90384L10.4823 9.37584C10.8983 9.07718 11.1917 8.80518 11.3623 8.55984C11.533 8.30384 11.6183 8.02118 11.6183 7.71184C11.6183 7.41317 11.5223 7.15184 11.3303 6.92784C11.149 6.70384 10.9037 6.52251 10.5943 6.38384C10.285 6.24518 9.93298 6.17584 9.53832 6.17584C9.03698 6.17584 8.56765 6.29851 8.13032 6.54384C7.69298 6.78917 7.31965 7.13584 7.01032 7.58384L5.74632 6.92784C6.02365 6.47984 6.35965 6.09584 6.75432 5.77584C7.15965 5.45584 7.60232 5.21584 8.08232 5.05584C8.56232 4.88518 9.07432 4.79984 9.61832 4.79984C10.301 4.79984 10.909 4.92784 11.4423 5.18384C11.9757 5.42918 12.397 5.76518 12.7063 6.19184C13.0263 6.61851 13.1863 7.10918 13.1863 7.66384C13.1863 8.02651 13.1277 8.35718 13.0103 8.65584C12.893 8.95451 12.6957 9.24784 12.4183 9.53584C12.141 9.81318 11.757 10.1225 11.2663 10.4638L10.7703 10.8158C10.397 11.0612 10.1357 11.3492 9.98632 11.6798C9.83698 11.9998 9.77832 12.4052 9.81032 12.8958H8.45032ZM9.13832 16.2878C8.86098 16.2878 8.62098 16.1918 8.41832 15.9998C8.22632 15.7972 8.13032 15.5572 8.13032 15.2798C8.13032 15.0025 8.22632 14.7678 8.41832 14.5758C8.62098 14.3732 8.86098 14.2718 9.13832 14.2718C9.41565 14.2718 9.65032 14.3732 9.84232 14.5758C10.045 14.7678 10.1463 15.0025 10.1463 15.2798C10.1463 15.5572 10.045 15.7972 9.84232 15.9998C9.65032 16.1918 9.41565 16.2878 9.13832 16.2878Z" fill="#FEB922"/>
<path d="M9.48209 18.6298C14.1689 18.6298 17.9821 14.8888 17.9821 10.2573C17.9821 5.62577 14.1689 1.88483 9.48209 1.88483C4.79527 1.88483 0.982086 5.62577 0.982086 10.2573C0.982086 14.8888 4.79527 18.6298 9.48209 18.6298Z" stroke="#FEB922"/>
</svg>
