<svg width="118" height="54" viewBox="0 0 118 54" fill="none" xmlns="http://www.w3.org/2000/svg">
<path d="M105.007 43.1921L99.5071 41.4361L100.736 47.0772L105.007 43.1921ZM100.527 43.6571C81.5985 46.8464 63.9547 37.7542 59.803 22.2597L58.8371 22.5185C63.1621 38.6598 81.4238 47.8899 100.694 44.6432L100.527 43.6571Z" fill="white"/>
<path d="M7.96445 7.45465C8.01653 7.68382 8.04257 7.90778 8.04257 8.12653C8.04257 8.22028 8.03736 8.31403 8.02695 8.40778C7.9957 8.72028 7.91236 9.00153 7.77695 9.25153C7.65195 9.49111 7.48007 9.68903 7.26132 9.84528C7.05299 9.99111 6.80299 10.064 6.51132 10.064C6.39674 10.0224 6.32903 9.95465 6.3082 9.8609C6.29778 9.76715 6.29257 9.69423 6.29257 9.64215C6.30299 9.5484 6.32903 9.48069 6.3707 9.43903C6.42278 9.39736 6.48007 9.36611 6.54257 9.34528C6.60507 9.31403 6.66757 9.28798 6.73007 9.26715C6.80299 9.2359 6.86549 9.18903 6.91757 9.12653C6.95924 9.08486 7.00091 9.02236 7.04257 8.93903C7.09466 8.84528 7.13632 8.75153 7.16757 8.65778C7.20924 8.56403 7.24049 8.47028 7.26132 8.37653C7.28216 8.28278 7.29257 8.19944 7.29257 8.12653C7.28216 7.94944 7.20403 7.78278 7.0582 7.62653C6.92278 7.45986 6.75091 7.31403 6.54257 7.18903C6.34466 7.05361 6.12591 6.94944 5.88632 6.87653C5.65716 6.79319 5.44882 6.74111 5.26132 6.72028C5.17799 6.70986 5.09466 6.70465 5.01132 6.70465C4.78216 6.70465 4.56341 6.7359 4.35507 6.7984C4.06341 6.88173 3.81341 7.01194 3.60507 7.18903C3.39674 7.36611 3.24049 7.58486 3.13632 7.84528C3.07382 8.00153 3.04257 8.16298 3.04257 8.32965C3.04257 8.46507 3.06341 8.60569 3.10507 8.75153C3.36549 9.20986 3.6832 9.6109 4.0582 9.95465C4.44361 10.288 4.83945 10.6161 5.2457 10.939C5.65195 11.2515 6.04257 11.5797 6.41757 11.9234C6.80299 12.2567 7.13111 12.6474 7.40195 13.0953C7.52695 13.3765 7.62591 13.6942 7.69882 14.0484C7.78216 14.4026 7.82382 14.7567 7.82382 15.1109C7.82382 15.4755 7.76653 15.8192 7.65195 16.1422C7.53736 16.4547 7.34986 16.7099 7.08945 16.9078C6.89153 17.0536 6.65716 17.1838 6.38632 17.2984C6.12591 17.4234 5.85507 17.5276 5.57382 17.6109C5.29257 17.6942 5.01653 17.7567 4.7457 17.7984C4.51653 17.8297 4.31341 17.8453 4.13632 17.8453H3.9957C3.8082 17.8349 3.61549 17.7776 3.41757 17.6734C3.21966 17.5797 3.03216 17.4547 2.85507 17.2984C2.68841 17.1526 2.52695 16.9963 2.3707 16.8297C2.22486 16.663 2.10507 16.5119 2.01132 16.3765C1.93841 16.2724 1.85507 16.1786 1.76132 16.0953C1.67799 16.0119 1.62591 15.9338 1.60507 15.8609C1.54257 15.6942 1.51132 15.5276 1.51132 15.3609C1.51132 15.288 1.51653 15.2203 1.52695 15.1578C1.5582 14.9182 1.62591 14.6942 1.73007 14.4859C1.84466 14.2672 1.97486 14.0692 2.1207 13.8922C2.27695 13.7151 2.4332 13.5692 2.58945 13.4547C2.94361 13.5067 3.14674 13.6005 3.19882 13.7359C3.20924 13.7776 3.21445 13.8192 3.21445 13.8609C3.21445 13.9651 3.17799 14.0744 3.10507 14.189C3.00091 14.3661 2.86549 14.5432 2.69882 14.7203C2.54257 14.8869 2.43841 15.038 2.38632 15.1734C2.42799 15.413 2.4957 15.6213 2.58945 15.7984C2.69361 15.9651 2.81341 16.1161 2.94882 16.2515C3.09466 16.3869 3.25091 16.5067 3.41757 16.6109C3.59466 16.7151 3.77174 16.814 3.94882 16.9078C4.09466 16.9182 4.23007 16.9234 4.35507 16.9234C4.50091 16.9234 4.64153 16.913 4.77695 16.8922C5.00611 16.8609 5.21966 16.8088 5.41757 16.7359C5.61549 16.6526 5.79778 16.564 5.96445 16.4703C6.14153 16.3661 6.32382 16.2672 6.51132 16.1734C6.76132 15.8609 6.90195 15.5276 6.9332 15.1734V14.9859C6.9332 14.6942 6.88111 14.4026 6.77695 14.1109C6.65195 13.7672 6.47486 13.4442 6.2457 13.1422C6.02695 12.8297 5.80299 12.5692 5.57382 12.3609C5.48007 12.2776 5.38632 12.1838 5.29257 12.0797C5.20924 11.9755 5.12591 11.8974 5.04257 11.8453C4.70924 11.5953 4.3707 11.3609 4.02695 11.1422C3.6832 10.913 3.37591 10.6578 3.10507 10.3765C2.95924 10.2203 2.81341 10.0276 2.66757 9.7984C2.52174 9.56923 2.39674 9.31923 2.29257 9.0484C2.19882 8.77757 2.14674 8.49111 2.13632 8.18903V8.12653C2.13632 7.84528 2.19882 7.56923 2.32382 7.2984C2.39674 7.14215 2.4957 7.01194 2.6207 6.90778C2.7457 6.79319 2.88111 6.68903 3.02695 6.59528C3.1832 6.50153 3.33424 6.40778 3.48007 6.31403C3.63632 6.22028 3.77695 6.1109 3.90195 5.9859C4.2457 5.9234 4.56341 5.89215 4.85507 5.89215C4.99049 5.89215 5.1207 5.89736 5.2457 5.90778C5.65195 5.94944 6.02174 6.04319 6.35507 6.18903C6.69882 6.32444 7.00091 6.50673 7.26132 6.7359C7.52174 6.95465 7.75611 7.19423 7.96445 7.45465ZM17.0582 12.939V13.1109C17.0582 13.4651 17.0322 13.8192 16.9801 14.1734C16.9176 14.5901 16.8394 15.0015 16.7457 15.4078C16.6519 15.8036 16.5478 16.1942 16.4332 16.5797C16.3186 16.9547 16.2144 17.3088 16.1207 17.6422C16.0165 17.663 15.9228 17.689 15.8394 17.7203C15.7874 17.7411 15.7249 17.7515 15.6519 17.7515C15.6103 17.7515 15.5582 17.7463 15.4957 17.7359C15.4332 17.6838 15.3759 17.6213 15.3238 17.5484C15.2822 17.4859 15.2353 17.4286 15.1832 17.3765C15.329 16.9599 15.4749 16.4963 15.6207 15.9859C15.7769 15.4755 15.8967 14.9547 15.9801 14.4234C16.0426 14.0172 16.0738 13.6161 16.0738 13.2203V12.8453C16.0426 12.3349 15.9176 11.8609 15.6988 11.4234C15.5217 11.2359 15.3186 11.0692 15.0894 10.9234C14.8707 10.7776 14.6207 10.663 14.3394 10.5797C13.954 10.6422 13.5999 10.7203 13.2769 10.814C12.954 10.9078 12.6676 11.0744 12.4176 11.314C12.0634 11.6578 11.7978 12.1057 11.6207 12.6578C11.4436 13.2099 11.3134 13.8088 11.2301 14.4547C11.1467 15.1005 11.0894 15.7619 11.0582 16.439C11.0269 17.1057 10.9749 17.7307 10.9019 18.314C10.7144 18.439 10.5634 18.5015 10.4488 18.5015C10.4176 18.5015 10.3915 18.4963 10.3707 18.4859C10.2457 18.4547 10.1519 18.3661 10.0894 18.2203C10.0374 18.0849 10.0113 17.9078 10.0113 17.689C10.0113 17.4807 10.0217 17.2619 10.0426 17.0328C10.0634 16.8036 10.0842 16.5901 10.1051 16.3922C10.1363 16.1838 10.1572 16.0224 10.1676 15.9078C10.2092 15.2828 10.2353 14.6369 10.2457 13.9703V13.314C10.2457 12.8869 10.2405 12.4599 10.2301 12.0328C10.2092 11.3974 10.178 10.7932 10.1363 10.2203C10.1051 9.63694 10.0686 9.1109 10.0269 8.64215C9.92278 8.46507 9.8707 8.22028 9.8707 7.90778C9.8707 7.59528 9.85507 7.26715 9.82382 6.9234C9.80299 6.74632 9.76653 6.55882 9.71445 6.3609C9.66236 6.16298 9.63632 5.99111 9.63632 5.84528C9.63632 5.69944 9.69361 5.59007 9.8082 5.51715C9.86028 5.4859 9.93841 5.47028 10.0426 5.47028C10.1572 5.47028 10.303 5.49111 10.4801 5.53278C10.5947 5.98069 10.6884 6.45986 10.7613 6.97028C10.8342 7.48069 10.8915 8.00673 10.9332 8.5484C10.9749 9.07965 11.0061 9.61611 11.0269 10.1578C11.0582 10.689 11.0894 11.2099 11.1207 11.7203C11.2665 11.314 11.5113 10.9547 11.8551 10.6422C12.1988 10.3297 12.5947 10.0953 13.0426 9.93903C13.4072 9.81403 13.7874 9.75153 14.1832 9.75153H14.4801C14.9801 9.79319 15.4592 9.96507 15.9176 10.2672C16.1988 10.6422 16.454 11.0432 16.6832 11.4703C16.9228 11.8869 17.0478 12.3765 17.0582 12.939ZM27.1676 11.7984C27.2509 12.2463 27.2926 12.663 27.2926 13.0484C27.2926 13.413 27.2561 13.7515 27.1832 14.064C27.0269 14.7203 26.7509 15.2776 26.3551 15.7359C25.9697 16.1942 25.4801 16.564 24.8863 16.8453C24.303 17.1161 23.6676 17.314 22.9801 17.439C22.2822 17.4182 21.6415 17.3297 21.0582 17.1734C20.4853 17.0172 19.9801 16.7724 19.5426 16.439C19.3551 16.3036 19.1988 16.1422 19.0738 15.9547C18.9592 15.7567 18.8551 15.5536 18.7613 15.3453C18.6676 15.1369 18.5738 14.9234 18.4801 14.7047C18.3967 14.4755 18.2978 14.2515 18.1832 14.0328C18.2665 13.5119 18.3499 12.9963 18.4332 12.4859C18.5165 11.9755 18.6415 11.5015 18.8082 11.064C19.0478 10.7724 19.3238 10.4807 19.6363 10.189C19.9488 9.89736 20.2926 9.64215 20.6676 9.4234C21.0426 9.19423 21.4436 9.02236 21.8707 8.90778C22.1624 8.82444 22.4644 8.78278 22.7769 8.78278C22.9124 8.78278 23.053 8.79319 23.1988 8.81403C23.3655 8.83486 23.5582 8.87653 23.7769 8.93903C24.0061 9.00153 24.2301 9.07444 24.4488 9.15778C24.678 9.24111 24.8915 9.33486 25.0894 9.43903C25.2978 9.54319 25.4644 9.64736 25.5894 9.75153C25.6936 9.84528 25.7874 9.94423 25.8707 10.0484C25.954 10.1526 26.0322 10.2619 26.1051 10.3765C26.1884 10.4807 26.2769 10.5797 26.3707 10.6734C26.4749 10.7672 26.5999 10.8453 26.7457 10.9078C26.8186 11.0536 26.8811 11.2099 26.9332 11.3765C26.9957 11.5328 27.0738 11.6734 27.1676 11.7984ZM26.3863 14.0953C26.4176 13.9078 26.4332 13.7203 26.4332 13.5328C26.4332 13.3869 26.428 13.2359 26.4176 13.0797C26.3655 12.7255 26.3342 12.3817 26.3238 12.0484C26.1676 11.9442 26.0322 11.814 25.9176 11.6578C25.803 11.5015 25.6936 11.3401 25.5894 11.1734C25.4853 11.0067 25.3759 10.8453 25.2613 10.689C25.1572 10.5328 25.0269 10.3974 24.8707 10.2828C24.5374 10.1578 24.2197 10.0276 23.9176 9.89215C23.6259 9.74632 23.3134 9.66819 22.9801 9.65778H22.8863C22.4697 9.65778 22.1155 9.72548 21.8238 9.8609C21.5009 10.0067 21.1936 10.1786 20.9019 10.3765C20.6936 10.5224 20.5061 10.6578 20.3394 10.7828C20.1728 10.9078 20.0217 11.0432 19.8863 11.189C19.7613 11.3349 19.6467 11.4963 19.5426 11.6734C19.4384 11.8401 19.3499 12.038 19.2769 12.2672C19.1832 12.663 19.1363 13.038 19.1363 13.3922C19.1363 13.6526 19.1624 13.9026 19.2144 14.1422C19.3394 14.7047 19.5842 15.1942 19.9488 15.6109C20.1676 15.7255 20.3967 15.8505 20.6363 15.9859C20.8759 16.1109 21.1259 16.2255 21.3863 16.3297C21.6572 16.4234 21.9332 16.4911 22.2144 16.5328C22.3603 16.564 22.5113 16.5797 22.6676 16.5797C22.803 16.5797 22.9436 16.5692 23.0894 16.5484C23.4436 16.4963 23.803 16.3974 24.1676 16.2515C24.5322 16.1057 24.8655 15.9234 25.1676 15.7047C25.4697 15.4859 25.7301 15.2411 25.9488 14.9703C26.1676 14.6994 26.3134 14.4078 26.3863 14.0953ZM37.6832 15.0484C37.6415 15.1109 37.5842 15.189 37.5113 15.2828C37.4488 15.3765 37.3759 15.4703 37.2926 15.564C37.2197 15.6578 37.1467 15.7463 37.0738 15.8297C37.0009 15.9026 36.9332 15.9599 36.8707 16.0015C36.8186 16.0328 36.7405 16.0692 36.6363 16.1109C36.5426 16.1422 36.4384 16.1786 36.3238 16.2203C36.2092 16.2515 36.0894 16.2828 35.9644 16.314C35.8499 16.3453 35.7509 16.3713 35.6676 16.3922C35.6155 16.4026 35.5686 16.4286 35.5269 16.4703C35.4957 16.5015 35.4644 16.5224 35.4332 16.5328H35.3863C35.3342 16.5328 35.2926 16.5224 35.2613 16.5015C35.2197 16.4911 35.1676 16.4859 35.1051 16.4859H35.0426C34.9384 16.4963 34.8342 16.5224 34.7301 16.564C34.6363 16.6057 34.5478 16.6265 34.4644 16.6265C34.3186 16.6265 34.1415 16.5953 33.9332 16.5328C33.7249 16.4703 33.5478 16.4078 33.4019 16.3453C33.2874 16.2828 33.1884 16.2047 33.1051 16.1109C33.0217 16.0067 32.9124 15.9078 32.7769 15.814C32.6519 15.7203 32.5322 15.6422 32.4176 15.5797C32.3134 15.5067 32.2249 15.4338 32.1519 15.3609C32.079 15.2776 32.0426 15.1786 32.0426 15.064L32.0269 15.0484C32.0269 14.9338 32.0686 14.788 32.1519 14.6109C32.2561 14.5797 32.3499 14.564 32.4332 14.564C32.5269 14.564 32.6103 14.5797 32.6832 14.6109C32.8186 14.6942 32.9436 14.8036 33.0582 14.939C33.1728 15.064 33.2874 15.1942 33.4019 15.3297C33.5269 15.4651 33.6728 15.5588 33.8394 15.6109C34.1519 15.7151 34.454 15.7672 34.7457 15.7672C34.9332 15.7672 35.1155 15.7411 35.2926 15.689C35.7405 15.5849 36.1259 15.3869 36.4488 15.0953C36.7822 14.7932 37.0426 14.4234 37.2301 13.9859C37.428 13.5484 37.5322 13.0849 37.5426 12.5953V12.4859C37.5426 12.1838 37.5061 11.9078 37.4332 11.6578C37.3499 11.3869 37.2405 11.1369 37.1051 10.9078C36.9697 10.6786 36.8134 10.4703 36.6363 10.2828C36.4592 10.0849 36.2822 9.89215 36.1051 9.70465C35.6155 9.44423 35.1311 9.31403 34.6519 9.31403C34.5894 9.31403 34.5269 9.31923 34.4644 9.32965C33.9228 9.37132 33.3967 9.51194 32.8863 9.75153C32.5426 9.90778 32.204 10.0744 31.8707 10.2515C31.5374 10.4182 31.2665 10.6369 31.0582 10.9078C31.1728 11.4599 31.2769 12.0328 31.3707 12.6265C31.4749 13.2099 31.553 13.8036 31.6051 14.4078C31.6363 14.8661 31.6519 15.3297 31.6519 15.7984V16.2672C31.6311 16.9026 31.5582 17.538 31.4332 18.1734C31.3915 18.3922 31.3551 18.6161 31.3238 18.8453C31.2926 19.0744 31.2561 19.2932 31.2144 19.5015C31.1832 19.7203 31.1363 19.9234 31.0738 20.1109C31.0217 20.2984 30.9488 20.4651 30.8551 20.6109C30.7301 20.7984 30.553 20.9547 30.3238 21.0797C30.0947 21.2047 29.8603 21.2776 29.6207 21.2984H29.5113C29.3134 21.2984 29.1311 21.2515 28.9644 21.1578C28.7561 21.0536 28.6207 20.8557 28.5582 20.564C28.3707 19.7411 28.2717 18.8869 28.2613 18.0015V17.8297C28.2613 17.0067 28.329 16.1994 28.4644 15.4078C28.5999 14.5536 28.8082 13.7411 29.0894 12.9703C29.3707 12.1994 29.704 11.5119 30.0894 10.9078C30.0894 10.689 30.0269 10.4651 29.9019 10.2359C29.7874 10.0067 29.678 9.78798 29.5738 9.57965C29.4697 9.37132 29.4124 9.16819 29.4019 8.97028C29.3915 8.95986 29.3863 8.94944 29.3863 8.93903C29.3863 8.76194 29.4749 8.60048 29.6519 8.45465C29.7249 8.50673 29.8082 8.53798 29.9019 8.5484C30.0061 8.55882 30.0842 8.59007 30.1363 8.64215C30.1884 8.91298 30.2665 9.15778 30.3707 9.37653C30.4853 9.58486 30.5999 9.78798 30.7144 9.9859C30.8707 9.93382 31.0165 9.86611 31.1519 9.78278C31.2874 9.68903 31.4228 9.59528 31.5582 9.50153C31.704 9.40778 31.8447 9.31923 31.9801 9.2359C32.1259 9.15257 32.2822 9.08486 32.4488 9.03278C32.5009 9.01194 32.5582 9.00153 32.6207 9.00153H32.6676C32.678 9.01194 32.6936 9.01715 32.7144 9.01715C32.7665 9.01715 32.8238 9.00673 32.8863 8.9859C33.0217 8.93382 33.1572 8.87132 33.2926 8.7984C33.4384 8.72548 33.5894 8.66298 33.7457 8.6109C33.9124 8.5484 34.0947 8.49632 34.2926 8.45465C34.3863 8.44423 34.4957 8.43903 34.6207 8.43903C34.7249 8.43903 34.8342 8.44423 34.9488 8.45465C35.2926 8.5484 35.5894 8.64215 35.8394 8.7359C36.0894 8.81923 36.3134 8.9234 36.5113 9.0484C36.7197 9.1734 36.9124 9.32444 37.0894 9.50153C37.2665 9.66819 37.4488 9.88173 37.6363 10.1422C37.8655 10.4651 38.0426 10.8297 38.1676 11.2359C38.303 11.6317 38.3759 12.0432 38.3863 12.4703V12.5328C38.3863 12.9494 38.3342 13.3661 38.2301 13.7828C38.1155 14.2203 37.9332 14.6422 37.6832 15.0484ZM30.6676 17.9234C30.7197 17.5172 30.7613 17.0744 30.7926 16.5953C30.803 16.2619 30.8082 15.9286 30.8082 15.5953V15.189C30.7978 14.7203 30.7769 14.2776 30.7457 13.8609C30.7144 13.4442 30.6728 13.0849 30.6207 12.7828C30.5894 12.6161 30.5374 12.4494 30.4644 12.2828C30.3915 12.1161 30.3447 12.0276 30.3238 12.0172C30.303 12.0276 30.2874 12.0484 30.2769 12.0797C30.2665 12.1109 30.2509 12.1369 30.2301 12.1578C30.053 12.5744 29.8811 13.0484 29.7144 13.5797C29.5478 14.1109 29.4019 14.6682 29.2769 15.2515C29.1519 15.8349 29.0634 16.4286 29.0113 17.0328C28.9697 17.3869 28.9488 17.7359 28.9488 18.0797C28.9488 18.3192 28.9592 18.5588 28.9801 18.7984C29.0009 19.0901 29.0478 19.3922 29.1207 19.7047C29.204 20.0172 29.3655 20.2724 29.6051 20.4703C29.7926 20.439 29.9436 20.3349 30.0582 20.1578C30.1832 19.9807 30.2822 19.7672 30.3551 19.5172C30.4384 19.2776 30.5009 19.0119 30.5426 18.7203C30.5947 18.439 30.6363 18.1734 30.6676 17.9234ZM51.1207 8.84528C51.2665 9.05361 51.3394 9.21507 51.3394 9.32965V9.3609C51.3186 9.4859 51.2405 9.57444 51.1051 9.62653C50.9801 9.67861 50.8134 9.70986 50.6051 9.72028C50.4072 9.72028 50.1988 9.72028 49.9801 9.72028C49.7509 9.72028 49.5374 9.73069 49.3394 9.75153C49.1415 9.76194 48.9853 9.80361 48.8707 9.87653C48.7353 10.4182 48.6676 10.9859 48.6676 11.5797C48.6572 11.6213 48.6519 11.663 48.6519 11.7047C48.6519 12.2567 48.6936 12.8036 48.7769 13.3453C48.8499 13.9286 48.954 14.4807 49.0894 15.0015C49.2353 15.5224 49.3915 15.9755 49.5582 16.3609C49.6832 16.4651 49.7926 16.6161 49.8863 16.814C49.9905 17.0015 50.1415 17.1786 50.3394 17.3453C50.4228 17.4182 50.5061 17.4807 50.5894 17.5328C50.6832 17.5849 50.7665 17.6369 50.8394 17.689C50.9124 17.7515 50.9697 17.8192 51.0113 17.8922C51.0426 17.9547 51.0582 18.0276 51.0582 18.1109V18.189C51.0478 18.3453 50.9801 18.4651 50.8551 18.5484C50.7509 18.6213 50.6415 18.6578 50.5269 18.6578H50.4332C50.3394 18.6369 50.2717 18.5797 50.2301 18.4859C50.1884 18.4026 50.0999 18.3036 49.9644 18.189C49.9124 18.1369 49.8394 18.0953 49.7457 18.064C49.6624 18.0432 49.5999 18.0172 49.5582 17.9859C49.4019 17.8505 49.2561 17.6786 49.1207 17.4703C48.9957 17.2724 48.8759 17.064 48.7613 16.8453C48.6572 16.6265 48.5582 16.4026 48.4644 16.1734C48.3811 15.9442 48.3082 15.7255 48.2457 15.5172C48.1624 15.2776 48.0842 15.0119 48.0113 14.7203C47.9384 14.4286 47.8759 14.1057 47.8238 13.7515C47.803 13.5744 47.7926 13.3974 47.7926 13.2203C47.7926 13.1057 47.7978 12.9963 47.8082 12.8922C47.8186 12.7151 47.8238 12.5328 47.8238 12.3453V12.0797C47.8134 11.788 47.7978 11.4703 47.7769 11.1265C47.7665 11.0328 47.7613 10.9338 47.7613 10.8297C47.7613 10.5901 47.7822 10.3453 47.8238 10.0953C47.7926 10.0849 47.7561 10.0797 47.7144 10.0797C47.5999 10.0797 47.4749 10.1213 47.3394 10.2047C47.1519 10.3088 46.954 10.4286 46.7457 10.564C46.5478 10.689 46.3499 10.8036 46.1519 10.9078C45.9749 10.9911 45.8134 11.0328 45.6676 11.0328H45.5738C45.428 11.0119 45.3238 10.9442 45.2613 10.8297C45.1988 10.7359 45.1676 10.6422 45.1676 10.5484C45.1676 10.5276 45.1728 10.5015 45.1832 10.4703C45.1936 10.3557 45.2561 10.2567 45.3707 10.1734C45.4436 10.1109 45.5478 10.0797 45.6832 10.0797C45.7353 10.0797 45.7874 10.0849 45.8394 10.0953C46.1311 9.85569 46.4592 9.66819 46.8238 9.53278C47.1988 9.39736 47.5842 9.27236 47.9801 9.15778C48.0322 8.74111 48.1103 8.28798 48.2144 7.7984C48.329 7.30882 48.428 6.83486 48.5113 6.37653C48.5322 6.26194 48.5426 6.14736 48.5426 6.03278C48.5426 5.92861 48.5478 5.82965 48.5582 5.7359C48.5686 5.63173 48.5894 5.54319 48.6207 5.47028C48.6624 5.39736 48.7301 5.33486 48.8238 5.28278C48.8759 5.30361 48.9384 5.31403 49.0113 5.31403C49.0738 5.31403 49.1363 5.31923 49.1988 5.32965C49.2613 5.34007 49.3186 5.3609 49.3707 5.39215C49.4228 5.4234 49.4644 5.47548 49.4957 5.5484C49.4019 6.01715 49.303 6.5484 49.1988 7.14215C49.1051 7.72548 49.0322 8.30882 48.9801 8.89215C49.1051 8.90257 49.2301 8.90778 49.3551 8.90778C49.5738 8.90778 49.8082 8.89215 50.0582 8.8609C50.2978 8.84007 50.5269 8.82965 50.7457 8.82965C50.8707 8.82965 50.9957 8.83486 51.1207 8.84528ZM60.0269 12.939V13.1109C60.0269 13.4651 60.0009 13.8192 59.9488 14.1734C59.8863 14.5901 59.8082 15.0015 59.7144 15.4078C59.6207 15.8036 59.5165 16.1942 59.4019 16.5797C59.2874 16.9547 59.1832 17.3088 59.0894 17.6422C58.9853 17.663 58.8915 17.689 58.8082 17.7203C58.7561 17.7411 58.6936 17.7515 58.6207 17.7515C58.579 17.7515 58.5269 17.7463 58.4644 17.7359C58.4019 17.6838 58.3447 17.6213 58.2926 17.5484C58.2509 17.4859 58.204 17.4286 58.1519 17.3765C58.2978 16.9599 58.4436 16.4963 58.5894 15.9859C58.7457 15.4755 58.8655 14.9547 58.9488 14.4234C59.0113 14.0172 59.0426 13.6161 59.0426 13.2203V12.8453C59.0113 12.3349 58.8863 11.8609 58.6676 11.4234C58.4905 11.2359 58.2874 11.0692 58.0582 10.9234C57.8394 10.7776 57.5894 10.663 57.3082 10.5797C56.9228 10.6422 56.5686 10.7203 56.2457 10.814C55.9228 10.9078 55.6363 11.0744 55.3863 11.314C55.0322 11.6578 54.7665 12.1057 54.5894 12.6578C54.4124 13.2099 54.2822 13.8088 54.1988 14.4547C54.1155 15.1005 54.0582 15.7619 54.0269 16.439C53.9957 17.1057 53.9436 17.7307 53.8707 18.314C53.6832 18.439 53.5322 18.5015 53.4176 18.5015C53.3863 18.5015 53.3603 18.4963 53.3394 18.4859C53.2144 18.4547 53.1207 18.3661 53.0582 18.2203C53.0061 18.0849 52.9801 17.9078 52.9801 17.689C52.9801 17.4807 52.9905 17.2619 53.0113 17.0328C53.0322 16.8036 53.053 16.5901 53.0738 16.3922C53.1051 16.1838 53.1259 16.0224 53.1363 15.9078C53.178 15.2828 53.204 14.6369 53.2144 13.9703V13.314C53.2144 12.8869 53.2092 12.4599 53.1988 12.0328C53.178 11.3974 53.1467 10.7932 53.1051 10.2203C53.0738 9.63694 53.0374 9.1109 52.9957 8.64215C52.8915 8.46507 52.8394 8.22028 52.8394 7.90778C52.8394 7.59528 52.8238 7.26715 52.7926 6.9234C52.7717 6.74632 52.7353 6.55882 52.6832 6.3609C52.6311 6.16298 52.6051 5.99111 52.6051 5.84528C52.6051 5.69944 52.6624 5.59007 52.7769 5.51715C52.829 5.4859 52.9072 5.47028 53.0113 5.47028C53.1259 5.47028 53.2717 5.49111 53.4488 5.53278C53.5634 5.98069 53.6572 6.45986 53.7301 6.97028C53.803 7.48069 53.8603 8.00673 53.9019 8.5484C53.9436 9.07965 53.9749 9.61611 53.9957 10.1578C54.0269 10.689 54.0582 11.2099 54.0894 11.7203C54.2353 11.314 54.4801 10.9547 54.8238 10.6422C55.1676 10.3297 55.5634 10.0953 56.0113 9.93903C56.3759 9.81403 56.7561 9.75153 57.1519 9.75153H57.4488C57.9488 9.79319 58.428 9.96507 58.8863 10.2672C59.1676 10.6422 59.4228 11.0432 59.6519 11.4703C59.8915 11.8869 60.0165 12.3765 60.0269 12.939ZM62.2769 6.7359C62.4853 6.6109 62.6572 6.5484 62.7926 6.5484H62.8707C63.0061 6.57965 63.0999 6.65257 63.1519 6.76715C63.1728 6.84007 63.1832 6.9234 63.1832 7.01715V7.15778C63.1519 7.31403 63.0947 7.43903 63.0113 7.53278C62.928 7.61611 62.829 7.65778 62.7144 7.65778C62.6936 7.65778 62.678 7.65257 62.6676 7.64215C62.5217 7.63173 62.3603 7.52236 62.1832 7.31403C62.1728 7.27236 62.1676 7.2359 62.1676 7.20465C62.1676 7.12132 62.1884 7.05361 62.2301 7.00153C62.2613 6.94944 62.2769 6.88173 62.2769 6.7984V6.7359ZM63.5269 17.7047C63.4228 17.7463 63.329 17.7672 63.2457 17.7672C63.1832 17.7672 63.1311 17.7515 63.0894 17.7203C62.9749 17.6682 62.8811 17.5744 62.8082 17.439C62.7353 17.314 62.678 17.1682 62.6363 17.0015C62.5947 16.8453 62.5478 16.6994 62.4957 16.564C62.3186 16.1161 62.1676 15.6057 62.0426 15.0328C61.9176 14.4599 61.829 13.8661 61.7769 13.2515C61.7353 12.7411 61.7144 12.2255 61.7144 11.7047V11.3922C61.7249 10.7776 61.7769 10.2047 61.8707 9.6734C62.0061 9.5484 62.1519 9.4859 62.3082 9.4859H62.3707C62.5478 9.50673 62.6728 9.60048 62.7457 9.76715C62.7769 9.82965 62.7926 9.89736 62.7926 9.97028C62.7926 10.0432 62.7822 10.1213 62.7613 10.2047C62.7092 10.3817 62.6728 10.5692 62.6519 10.7672C62.6311 10.9963 62.6207 11.2515 62.6207 11.5328V11.814C62.6311 12.2099 62.6415 12.538 62.6519 12.7984C62.6519 13.0172 62.6572 13.2619 62.6676 13.5328C62.6884 13.7932 62.7197 14.0588 62.7613 14.3297C62.803 14.6005 62.8499 14.8661 62.9019 15.1265C62.9644 15.3869 63.0374 15.6213 63.1207 15.8297C63.1832 16.0067 63.2665 16.1786 63.3707 16.3453C63.4749 16.5015 63.5582 16.6526 63.6207 16.7984C63.6936 16.9442 63.7301 17.0901 63.7301 17.2359C63.7301 17.3922 63.6624 17.5484 63.5269 17.7047ZM72.1051 10.5484C72.0322 10.7151 71.9436 10.8557 71.8394 10.9703C71.7457 11.0744 71.5947 11.1265 71.3863 11.1265H71.2769C71.079 10.8557 70.8915 10.5797 70.7144 10.2984C70.5478 10.0172 70.3342 9.77236 70.0738 9.56403C69.6676 9.42861 69.2509 9.33486 68.8238 9.28278C68.7092 9.27236 68.5894 9.26715 68.4644 9.26715C68.1311 9.26715 67.7822 9.31403 67.4176 9.40778C67.2301 9.45986 67.0165 9.54319 66.7769 9.65778C66.5478 9.77236 66.3915 9.88173 66.3082 9.9859C66.2457 10.0692 66.1624 10.1526 66.0582 10.2359C65.9644 10.3192 65.8707 10.4078 65.7769 10.5015C65.6936 10.5953 65.6259 10.6994 65.5738 10.814C65.5322 10.8974 65.5113 10.9911 65.5113 11.0953C65.5113 11.1369 65.5165 11.1838 65.5269 11.2359C65.5374 11.3297 65.5686 11.4234 65.6207 11.5172C65.6832 11.6109 65.7561 11.7047 65.8394 11.7984C65.9332 11.8922 66.0269 11.9755 66.1207 12.0484C66.2249 12.1213 66.3238 12.1786 66.4176 12.2203C66.553 12.2828 66.6936 12.3297 66.8394 12.3609C66.9853 12.3817 67.1311 12.4026 67.2769 12.4234C67.4228 12.4442 67.5634 12.4703 67.6988 12.5015C67.8447 12.5328 67.9749 12.5953 68.0894 12.689C68.579 12.6994 69.0738 12.7984 69.5738 12.9859C70.0738 13.163 70.5009 13.3974 70.8551 13.689C71.1884 14.1369 71.3551 14.5849 71.3551 15.0328V15.1422C71.3238 15.6213 71.1572 16.0484 70.8551 16.4234C70.553 16.788 70.1519 17.0744 69.6519 17.2828C69.2665 17.439 68.8603 17.5172 68.4332 17.5172C68.3082 17.5172 68.178 17.5119 68.0426 17.5015C67.7405 17.3974 67.454 17.2776 67.1832 17.1422C66.9124 17.0172 66.6676 16.8609 66.4488 16.6734C66.2405 16.4859 66.0634 16.2672 65.9176 16.0172C65.7717 15.7567 65.678 15.4494 65.6363 15.0953H65.6832C65.7457 15.0953 65.8082 15.0797 65.8707 15.0484C65.954 15.0172 66.0374 14.9859 66.1207 14.9547C66.1936 14.9338 66.2613 14.9234 66.3238 14.9234H66.3707C66.4436 14.9338 66.5113 14.9755 66.5738 15.0484C66.6572 15.1005 66.7197 15.1786 66.7613 15.2828C66.7717 15.3349 66.7769 15.3817 66.7769 15.4234C66.7769 15.4963 66.7613 15.564 66.7301 15.6265C66.9488 15.939 67.2405 16.1682 67.6051 16.314C67.8967 16.439 68.1936 16.5015 68.4957 16.5015C68.5582 16.5015 68.6259 16.4963 68.6988 16.4859C69.0634 16.4547 69.4072 16.3453 69.7301 16.1578C70.053 15.9599 70.2874 15.6786 70.4332 15.314C70.4124 15.1161 70.3603 14.9286 70.2769 14.7515C70.1936 14.5744 70.0894 14.413 69.9644 14.2672C69.6728 14.1005 69.3499 13.9651 68.9957 13.8609C68.6519 13.7567 68.2978 13.663 67.9332 13.5797C67.579 13.4859 67.2249 13.3922 66.8707 13.2984C66.5269 13.2047 66.1988 13.0849 65.8863 12.939C65.5842 12.7932 65.3134 12.6109 65.0738 12.3922C64.8447 12.1734 64.6676 11.8922 64.5426 11.5484V10.9234C64.5947 10.7255 64.6676 10.5536 64.7613 10.4078C64.8551 10.2515 64.9592 10.1057 65.0738 9.97028C65.1884 9.83486 65.3082 9.70986 65.4332 9.59528C65.5582 9.47028 65.678 9.34007 65.7926 9.20465C65.9072 9.14215 66.0217 9.08486 66.1363 9.03278C66.2613 8.98069 66.3811 8.92861 66.4957 8.87653C66.6207 8.81403 66.7353 8.74632 66.8394 8.6734C66.9436 8.60048 67.0322 8.51194 67.1051 8.40778C67.2509 8.44944 67.4072 8.47028 67.5738 8.47028C67.5947 8.47028 67.6155 8.46507 67.6363 8.45465C67.8238 8.45465 68.0113 8.44423 68.1988 8.4234C68.3967 8.39215 68.5842 8.36611 68.7613 8.34528H68.9801C69.0738 8.34528 69.1624 8.35048 69.2457 8.3609C69.7353 8.44423 70.1572 8.6109 70.5113 8.8609C70.8655 9.10048 71.2092 9.35048 71.5426 9.6109C71.553 9.72548 71.5842 9.82444 71.6363 9.90778C71.6884 9.98069 71.7405 10.0536 71.7926 10.1265C71.8551 10.189 71.9124 10.2567 71.9644 10.3297C72.0269 10.3922 72.0738 10.4651 72.1051 10.5484ZM92.1832 12.6578C92.2144 12.8557 92.2301 13.0484 92.2301 13.2359C92.2301 13.5172 92.1936 13.7932 92.1207 14.064C91.9957 14.5224 91.7926 14.939 91.5113 15.314C91.2405 15.689 90.9072 16.0119 90.5113 16.2828C90.1155 16.5432 89.6832 16.7359 89.2144 16.8609C88.8811 16.9442 88.5582 16.9859 88.2457 16.9859C88.1207 16.9859 88.0009 16.9807 87.8863 16.9703C87.4488 16.9286 87.0374 16.8244 86.6519 16.6578C86.2665 16.4807 85.9072 16.2567 85.5738 15.9859C85.2509 15.7151 84.9749 15.4078 84.7457 15.064C84.4957 15.2515 84.2613 15.4963 84.0426 15.7984C83.8342 16.0901 83.6051 16.3661 83.3551 16.6265C83.1051 16.8765 82.8186 17.0744 82.4957 17.2203C82.3082 17.314 82.0947 17.3609 81.8551 17.3609C81.678 17.3609 81.4853 17.3349 81.2769 17.2828C80.8707 17.189 80.5426 17.0067 80.2926 16.7359C80.0426 16.4547 79.8447 16.1213 79.6988 15.7359C79.553 15.3505 79.4488 14.9234 79.3863 14.4547C79.3238 13.9859 79.2822 13.5015 79.2613 13.0015C79.2509 12.7515 79.2457 12.4651 79.2457 12.1422C79.2353 12.0901 79.2301 12.038 79.2301 11.9859C79.2301 11.7255 79.2457 11.4599 79.2769 11.189C79.2978 10.8765 79.3394 10.5797 79.4019 10.2984C79.4644 10.0172 79.5582 9.78798 79.6832 9.6109C79.7561 9.59007 79.8238 9.57965 79.8863 9.57965C79.9592 9.57965 80.0217 9.59528 80.0738 9.62653C80.1572 9.68903 80.2405 9.75153 80.3238 9.81403C80.3655 9.89736 80.3863 9.97548 80.3863 10.0484V10.0797C80.3759 10.163 80.3551 10.2463 80.3238 10.3297C80.303 10.413 80.2717 10.4963 80.2301 10.5797C80.1988 10.6526 80.178 10.7359 80.1676 10.8297C80.1155 11.1422 80.0894 11.4703 80.0894 11.814C80.079 11.8869 80.0738 11.9547 80.0738 12.0172C80.0738 12.2984 80.0842 12.5744 80.1051 12.8453C80.1259 13.189 80.1624 13.5328 80.2144 13.8765C80.2665 14.2099 80.3186 14.5328 80.3707 14.8453C80.4124 15.0849 80.4853 15.314 80.5894 15.5328C80.6936 15.7515 80.8238 15.9338 80.9801 16.0797C81.1363 16.2255 81.3238 16.3244 81.5426 16.3765C81.6363 16.4078 81.7301 16.4234 81.8238 16.4234C81.9697 16.4234 82.1259 16.3974 82.2926 16.3453C82.4176 16.3036 82.5686 16.2099 82.7457 16.064C82.9228 15.9182 83.0947 15.7567 83.2613 15.5797C83.4384 15.3922 83.5999 15.2047 83.7457 15.0172C83.8915 14.8297 84.0009 14.6734 84.0738 14.5484C84.1572 14.4026 84.204 14.2619 84.2144 14.1265V14.0015C84.2144 13.9078 84.2092 13.814 84.1988 13.7203C84.1676 13.5849 84.1259 13.4442 84.0738 13.2984C84.0322 13.1422 83.9957 12.9703 83.9644 12.7828C83.8811 12.3661 83.8342 11.9651 83.8238 11.5797V11.4547C83.8238 11.1213 83.8603 10.8088 83.9332 10.5172C84.0165 10.2047 84.1572 9.93382 84.3551 9.70465C84.553 9.46507 84.8186 9.28278 85.1519 9.15778C85.4957 9.26194 85.7561 9.42861 85.9332 9.65778C86.1103 9.87653 86.2249 10.1265 86.2769 10.4078C86.2978 10.5536 86.3082 10.6942 86.3082 10.8297C86.3082 10.9963 86.2926 11.163 86.2613 11.3297C86.2092 11.6526 86.1259 11.9755 86.0113 12.2984C85.9072 12.6109 85.7874 12.913 85.6519 13.2047C85.5165 13.4859 85.3915 13.7255 85.2769 13.9234C85.4228 14.3505 85.6415 14.7255 85.9332 15.0484C86.2249 15.3713 86.5686 15.6213 86.9644 15.7984C87.3707 15.9755 87.8186 16.064 88.3082 16.064C88.3186 16.0744 88.329 16.0797 88.3394 16.0797C88.8186 16.0797 89.3186 15.9703 89.8394 15.7515C90.2978 15.4078 90.704 15.0588 91.0582 14.7047C91.1311 14.4442 91.204 14.1578 91.2769 13.8453C91.3499 13.5224 91.4019 13.1942 91.4332 12.8609C91.454 12.6838 91.4644 12.5067 91.4644 12.3297C91.4644 12.1838 91.4592 12.038 91.4488 11.8922C91.4176 11.5797 91.3342 11.288 91.1988 11.0172C91.1467 10.913 91.0842 10.8244 91.0113 10.7515C90.9384 10.6786 90.8603 10.6109 90.7769 10.5484C90.704 10.4859 90.6311 10.4182 90.5582 10.3453C90.4853 10.2724 90.4228 10.189 90.3707 10.0953C90.4644 9.79319 90.5894 9.6109 90.7457 9.5484C90.7874 9.53798 90.8342 9.53278 90.8863 9.53278C90.9905 9.53278 91.0999 9.56923 91.2144 9.64215C91.3707 9.76715 91.5269 9.95465 91.6832 10.2047C91.8394 10.4547 91.9644 10.7255 92.0582 11.0172C92.1624 11.3088 92.2301 11.6005 92.2613 11.8922C92.2717 11.9755 92.2769 12.0536 92.2769 12.1265C92.2769 12.3244 92.2457 12.5015 92.1832 12.6578ZM85.1832 10.1578C85.0374 10.2619 84.928 10.413 84.8551 10.6109C84.7822 10.8088 84.7457 11.0224 84.7457 11.2515C84.7353 11.2828 84.7301 11.314 84.7301 11.3453C84.7301 11.5536 84.7509 11.7672 84.7926 11.9859C84.8238 12.2463 84.8759 12.4807 84.9488 12.689C85.0113 12.5224 85.0947 12.3297 85.1988 12.1109C85.303 11.8817 85.3863 11.6474 85.4488 11.4078C85.5009 11.2307 85.5269 11.0588 85.5269 10.8922C85.5269 10.8297 85.5217 10.7724 85.5113 10.7203C85.4905 10.5015 85.3811 10.314 85.1832 10.1578ZM103.355 16.4859C103.324 16.6109 103.287 16.7255 103.246 16.8297C103.204 16.9338 103.136 17.0067 103.043 17.0484C102.99 17.0692 102.928 17.0797 102.855 17.0797C102.803 17.0797 102.751 17.0744 102.699 17.064C102.553 17.0432 102.402 17.0015 102.246 16.939C102.089 16.8765 101.938 16.8036 101.793 16.7203C101.657 16.6369 101.553 16.5588 101.48 16.4859C101.334 16.3505 101.214 16.1942 101.121 16.0172C101.037 15.8401 100.959 15.663 100.886 15.4859C100.813 15.2984 100.746 15.1265 100.683 14.9703C100.631 14.814 100.563 14.689 100.48 14.5953C100.365 14.6474 100.272 14.7151 100.199 14.7984C100.126 14.8817 100.053 14.9755 99.9801 15.0797C99.9176 15.1838 99.8499 15.2932 99.7769 15.4078C99.7144 15.5119 99.6363 15.6057 99.5426 15.689C99.3238 15.9078 99.0582 16.1057 98.7457 16.2828C98.4436 16.4494 98.1155 16.5797 97.7613 16.6734C97.4592 16.7567 97.1467 16.7984 96.8238 16.7984C96.7717 16.7984 96.7197 16.7932 96.6676 16.7828C96.2926 16.7724 95.928 16.689 95.5738 16.5328C95.2092 16.2828 94.8759 15.9651 94.5738 15.5797C94.2822 15.1942 94.0478 14.7672 93.8707 14.2984C93.6936 13.8297 93.5947 13.3297 93.5738 12.7984C93.5634 12.7359 93.5582 12.6734 93.5582 12.6109C93.5582 12.1526 93.6415 11.6838 93.8082 11.2047C93.8707 11.038 93.954 10.8557 94.0582 10.6578C94.1728 10.4494 94.2978 10.2515 94.4332 10.064C94.5686 9.87653 94.7092 9.70465 94.8551 9.5484C95.0113 9.39215 95.1624 9.26715 95.3082 9.1734C95.6832 8.94423 96.0947 8.79319 96.5426 8.72028C96.7822 8.68903 97.0217 8.6734 97.2613 8.6734C97.4592 8.6734 97.6624 8.68382 97.8707 8.70465C98.3186 8.76715 98.7509 8.88694 99.1676 9.06403C99.5947 9.23069 99.9801 9.43903 100.324 9.68903C100.418 9.59528 100.532 9.49632 100.668 9.39215C100.813 9.27757 100.964 9.18382 101.121 9.1109C101.256 9.05882 101.392 9.03278 101.527 9.03278H101.605C101.761 9.04319 101.912 9.12132 102.058 9.26715C102.142 9.59007 102.183 9.90778 102.183 10.2203V10.4547C102.152 10.8401 102.084 11.2151 101.98 11.5797C101.876 11.9338 101.746 12.2724 101.589 12.5953C101.444 12.9182 101.303 13.2203 101.168 13.5015C101.324 13.9911 101.496 14.4599 101.683 14.9078C101.881 15.3557 102.142 15.7411 102.464 16.064H102.636C102.803 16.064 102.928 16.0849 103.011 16.1265C103.126 16.1994 103.24 16.3192 103.355 16.4859ZM101.277 10.0484C101.069 10.3505 100.954 10.6838 100.933 11.0484V11.2984C100.933 11.5901 100.959 11.9078 101.011 12.2515C101.074 12.1265 101.147 11.9651 101.23 11.7672C101.313 11.5588 101.381 11.3453 101.433 11.1265C101.464 10.9494 101.48 10.7776 101.48 10.6109V10.5015C101.47 10.314 101.402 10.163 101.277 10.0484ZM100.23 13.3922C100.188 12.9651 100.147 12.5172 100.105 12.0484C100.074 11.7776 100.058 11.5119 100.058 11.2515C100.058 11.0744 100.063 10.9026 100.074 10.7359C99.9384 10.5276 99.7561 10.3401 99.5269 10.1734C99.2978 10.0067 99.0478 9.87132 98.7769 9.76715C98.5061 9.66298 98.2197 9.59007 97.9176 9.5484C97.7405 9.52757 97.5738 9.51715 97.4176 9.51715C97.2926 9.51715 97.1676 9.52236 97.0426 9.53278C96.678 9.57444 96.3603 9.66298 96.0894 9.7984C95.8186 9.9234 95.579 10.0797 95.3707 10.2672C95.2561 10.4755 95.1311 10.7047 94.9957 10.9547C94.8603 11.2047 94.7405 11.4703 94.6363 11.7515C94.5426 12.0328 94.4749 12.3244 94.4332 12.6265C94.4228 12.7411 94.4176 12.8505 94.4176 12.9547C94.4176 13.1526 94.4384 13.3505 94.4801 13.5484C94.5217 13.7151 94.5842 13.9026 94.6676 14.1109C94.7613 14.3088 94.8655 14.5067 94.9801 14.7047C95.1051 14.9026 95.2353 15.0849 95.3707 15.2515C95.5165 15.4182 95.6572 15.5484 95.7926 15.6422C96.0009 15.788 96.2457 15.8817 96.5269 15.9234C96.704 15.9547 96.8915 15.9703 97.0894 15.9703C97.1936 15.9703 97.2978 15.9651 97.4019 15.9547C97.7457 15.8505 98.0478 15.7047 98.3082 15.5172C98.5686 15.3297 98.8082 15.1213 99.0269 14.8922C99.2457 14.663 99.4488 14.4182 99.6363 14.1578C99.8342 13.8974 100.032 13.6422 100.23 13.3922ZM113.339 15.9703C113.506 16.1786 113.61 16.4494 113.652 16.7828C113.662 16.8974 113.668 17.0015 113.668 17.0953C113.668 17.314 113.642 17.5119 113.589 17.689C113.506 17.9599 113.376 18.1474 113.199 18.2515C113.136 18.2932 113.074 18.314 113.011 18.314C112.865 18.314 112.694 18.2255 112.496 18.0484V17.9234C112.496 17.8505 112.501 17.788 112.511 17.7359C112.532 17.663 112.558 17.5901 112.589 17.5172C112.621 17.4442 112.647 17.3713 112.668 17.2984C112.699 17.2359 112.714 17.1578 112.714 17.064C112.704 16.8349 112.662 16.6526 112.589 16.5172C112.527 16.3817 112.433 16.2776 112.308 16.2047C112.183 16.1317 112.027 16.0797 111.839 16.0484C111.652 16.0172 111.438 15.9911 111.199 15.9703C111.178 16.5744 111.147 17.1942 111.105 17.8297C111.063 18.4651 110.985 19.0797 110.871 19.6734C110.767 20.2776 110.615 20.8453 110.418 21.3765C110.22 21.9078 109.954 22.3713 109.621 22.7672C109.298 23.1734 108.897 23.4911 108.418 23.7203C107.938 23.9494 107.365 24.064 106.699 24.064C106.23 23.9703 105.845 23.7932 105.543 23.5328C105.251 23.2828 104.99 22.9911 104.761 22.6578C104.647 22.1474 104.563 21.6474 104.511 21.1578C104.501 21.0328 104.496 20.9078 104.496 20.7828C104.496 20.3974 104.553 19.9911 104.668 19.564C104.688 19.4703 104.73 19.3453 104.793 19.189C104.855 19.0432 104.923 18.8922 104.996 18.7359C105.069 18.5797 105.147 18.4286 105.23 18.2828C105.313 18.1474 105.386 18.038 105.449 17.9547C105.522 17.8609 105.61 17.788 105.714 17.7359C105.829 17.6838 105.933 17.6161 106.027 17.5328C106.162 17.3974 106.277 17.2463 106.371 17.0797C106.475 16.9234 106.621 16.7776 106.808 16.6422C106.923 16.5588 107.063 16.4807 107.23 16.4078C107.397 16.3349 107.553 16.2567 107.699 16.1734C108.095 15.9651 108.475 15.7984 108.839 15.6734C109.214 15.538 109.652 15.4078 110.152 15.2828C110.152 15.0015 110.147 14.7099 110.136 14.4078C110.136 14.0953 110.131 13.788 110.121 13.4859C110.11 13.1734 110.095 12.8713 110.074 12.5797C110.053 12.2776 110.027 11.9963 109.996 11.7359C109.85 11.8192 109.735 11.9234 109.652 12.0484C109.569 12.1734 109.49 12.3088 109.418 12.4547C109.355 12.6005 109.293 12.7463 109.23 12.8922C109.168 13.038 109.089 13.1734 108.996 13.2984C108.892 13.4338 108.751 13.5536 108.574 13.6578C108.407 13.7515 108.235 13.8609 108.058 13.9859C107.881 14.1109 107.704 14.2411 107.527 14.3765C107.35 14.5015 107.157 14.6109 106.949 14.7047C106.74 14.788 106.511 14.8401 106.261 14.8609C106.209 14.8713 106.152 14.8765 106.089 14.8765C105.881 14.8765 105.652 14.8401 105.402 14.7672C105.089 14.5484 104.855 14.2828 104.699 13.9703C104.543 13.6474 104.449 13.2984 104.418 12.9234C104.397 12.788 104.386 12.6422 104.386 12.4859C104.386 12.2567 104.407 12.0172 104.449 11.7672C104.501 11.3713 104.574 10.9755 104.668 10.5797C104.772 10.1838 104.886 9.80361 105.011 9.43903C105.136 9.06403 105.246 8.73069 105.339 8.43903C105.454 8.36611 105.579 8.32965 105.714 8.32965C105.767 8.32965 105.819 8.33486 105.871 8.34528C105.923 8.41819 105.975 8.4859 106.027 8.5484C106.079 8.6109 106.131 8.68382 106.183 8.76715C106.079 9.16298 105.944 9.59007 105.777 10.0484C105.621 10.5067 105.496 10.9703 105.402 11.439C105.339 11.7724 105.308 12.1005 105.308 12.4234C105.308 12.5484 105.313 12.6734 105.324 12.7984C105.355 13.2359 105.517 13.6317 105.808 13.9859C105.923 14.0067 106.027 14.0172 106.121 14.0172C106.183 14.0172 106.246 14.0119 106.308 14.0015C106.454 13.9807 106.584 13.9494 106.699 13.9078C106.813 13.8557 106.918 13.7984 107.011 13.7359C107.115 13.663 107.22 13.5901 107.324 13.5172C107.49 13.4026 107.657 13.3088 107.824 13.2359C108.001 13.1526 108.147 13.038 108.261 12.8922C108.386 12.7463 108.496 12.5849 108.589 12.4078C108.683 12.2203 108.772 12.038 108.855 11.8609C108.949 11.6838 109.043 11.5172 109.136 11.3609C109.24 11.1942 109.371 11.0588 109.527 10.9547C109.621 10.5797 109.725 10.2047 109.839 9.82965C109.944 9.49632 109.996 9.14215 109.996 8.76715V8.65778C110.11 8.60569 110.225 8.55361 110.339 8.50153C110.402 8.47028 110.464 8.45465 110.527 8.45465C110.589 8.45465 110.652 8.47028 110.714 8.50153C110.798 8.61611 110.855 8.75153 110.886 8.90778C110.928 9.05361 110.954 9.21507 110.964 9.39215V9.51715C110.964 9.65257 110.959 9.78798 110.949 9.9234C110.928 10.1005 110.907 10.2672 110.886 10.4234C110.918 10.7776 110.938 11.1317 110.949 11.4859C110.959 11.8401 110.97 12.2047 110.98 12.5797C110.99 12.9547 111.001 13.3401 111.011 13.7359C111.022 14.1317 111.048 14.5432 111.089 14.9703C111.225 15.0015 111.339 15.0328 111.433 15.064C111.537 15.0849 111.636 15.1109 111.73 15.1422C111.824 15.163 111.923 15.1838 112.027 15.2047C112.131 15.2255 112.256 15.2411 112.402 15.2515C112.475 15.314 112.548 15.3661 112.621 15.4078C112.694 15.4494 112.767 15.4911 112.839 15.5328C112.923 15.5744 113.001 15.6317 113.074 15.7047C113.157 15.7672 113.246 15.8557 113.339 15.9703ZM110.199 16.7515C110.199 16.7203 110.204 16.6734 110.214 16.6109C110.225 16.5484 110.23 16.4859 110.23 16.4234C110.23 16.3609 110.214 16.3088 110.183 16.2672C110.162 16.2151 110.115 16.1838 110.043 16.1734C109.918 16.2255 109.793 16.2724 109.668 16.314C109.553 16.3557 109.433 16.3922 109.308 16.4234C109.183 16.4442 109.053 16.4703 108.918 16.5015C108.793 16.5224 108.678 16.5536 108.574 16.5953C108.49 16.6369 108.392 16.6994 108.277 16.7828C108.173 16.8661 108.063 16.9442 107.949 17.0172C107.793 17.1109 107.626 17.2151 107.449 17.3297C107.272 17.4442 107.1 17.564 106.933 17.689C106.777 17.814 106.626 17.9442 106.48 18.0797C106.334 18.2151 106.214 18.3453 106.121 18.4703C105.975 18.6786 105.845 18.9338 105.73 19.2359C105.615 19.538 105.527 19.8557 105.464 20.189C105.412 20.4807 105.386 20.7724 105.386 21.064V21.2047C105.397 21.5484 105.454 21.8609 105.558 22.1422C105.662 22.4234 105.819 22.6578 106.027 22.8453C106.235 23.0328 106.511 23.1422 106.855 23.1734C106.949 23.1838 107.037 23.189 107.121 23.189C107.454 23.189 107.746 23.1213 107.996 22.9859C108.298 22.8297 108.558 22.6213 108.777 22.3609C108.996 22.1005 109.178 21.8088 109.324 21.4859C109.48 21.1734 109.631 20.8817 109.777 20.6109C109.892 20.0172 109.996 19.3974 110.089 18.7515C110.162 18.2307 110.199 17.689 110.199 17.1265V16.7515Z" fill="white"/>
</svg>
